<svg xmlns="http://www.w3.org/2000/svg" width="1600" height="1000" viewBox="0 0 1600 1000" preserveAspectRatio="xMidYMid slice">
  <defs>
    <linearGradient id="bg" x1="0" y1="0" x2="0.4" y2="1">
      <stop offset="0" stop-color="#8a7a66"/>
      <stop offset="0.5" stop-color="#776756"/>
      <stop offset="1" stop-color="#5b4e40"/>
    </linearGradient>
  </defs>
  <rect width="1600" height="1000" fill="url(#bg)"/>
  <circle cx="1240" cy="250" r="160" fill="#ffffff" opacity="0.05"/>
  <circle cx="1240" cy="250" r="100" fill="#ffffff" opacity="0.06"/>
  <g fill="none" stroke="#f3efe7">
    <g opacity="0.45">
      <path d="M120 760 L120 560 L260 470 L400 560 L400 760 Z" stroke-width="3"/>
      <path d="M260 470 L260 410 L340 410 L340 520" stroke-width="3"/>
      <rect x="180" y="610" width="50" height="60" stroke-width="2.5"/>
      <rect x="290" y="610" width="50" height="60" stroke-width="2.5"/>
      <rect x="235" y="690" width="50" height="70" stroke-width="2.5"/>
    </g>
    <g opacity="0.30">
      <path d="M520 780 L520 520 L660 430 L800 520 L800 780 Z" stroke-width="3"/>
      <rect x="575" y="575" width="55" height="65" stroke-width="2.5"/>
      <rect x="690" y="575" width="55" height="65" stroke-width="2.5"/>
      <rect x="630" y="665" width="60" height="115" stroke-width="2.5"/>
    </g>
    <g opacity="0.20">
      <path d="M950 800 L950 600 L1080 520 L1210 600 L1210 800 Z" stroke-width="3"/>
      <rect x="1005" y="650" width="50" height="60" stroke-width="2.5"/>
      <rect x="1110" y="650" width="50" height="60" stroke-width="2.5"/>
    </g>
  </g>
  <rect y="830" width="1600" height="170" fill="#443a2f" opacity="0.45"/>
</svg>
