<svg xmlns="http://www.w3.org/2000/svg" width="1600" height="1000" viewBox="0 0 1600 1000" preserveAspectRatio="xMidYMid slice">
  <defs>
    <linearGradient id="sky" x1="0" y1="0" x2="0" y2="1">
      <stop offset="0" stop-color="#1d3a5f"/>
      <stop offset="0.55" stop-color="#16304e"/>
      <stop offset="1" stop-color="#0e1d30"/>
    </linearGradient>
    <linearGradient id="gold" x1="0" y1="0" x2="1" y2="1">
      <stop offset="0" stop-color="#d8b76a"/>
      <stop offset="1" stop-color="#c39b46"/>
    </linearGradient>
  </defs>
  <rect width="1600" height="1000" fill="url(#sky)"/>
  <circle cx="1230" cy="240" r="150" fill="#d8b76a" opacity="0.10"/>
  <circle cx="1230" cy="240" r="95" fill="#d8b76a" opacity="0.12"/>
  <g opacity="0.9">
    <!-- skyline of houses -->
    <g fill="none" stroke="url(#gold)" stroke-width="3" opacity="0.55">
      <path d="M120 760 L120 560 L260 470 L400 560 L400 760 Z"/>
      <path d="M260 470 L260 410 L340 410 L340 520"/>
      <rect x="180" y="610" width="50" height="60"/>
      <rect x="290" y="610" width="50" height="60"/>
      <rect x="235" y="690" width="50" height="70"/>
    </g>
    <g fill="none" stroke="url(#gold)" stroke-width="3" opacity="0.4">
      <path d="M520 780 L520 520 L660 430 L800 520 L800 780 Z"/>
      <rect x="575" y="575" width="55" height="65"/>
      <rect x="690" y="575" width="55" height="65"/>
      <rect x="630" y="665" width="60" height="115"/>
    </g>
    <g fill="none" stroke="url(#gold)" stroke-width="3" opacity="0.30">
      <path d="M950 800 L950 600 L1080 520 L1210 600 L1210 800 Z"/>
      <rect x="1005" y="650" width="50" height="60"/>
      <rect x="1110" y="650" width="50" height="60"/>
    </g>
  </g>
  <rect y="820" width="1600" height="180" fill="#0e1d30" opacity="0.5"/>
</svg>
