<svg xmlns="http://www.w3.org/2000/svg" style="display:none">
  <symbol id="tag" viewBox="0 0 24 24" fill="none" stroke="currentColor" stroke-width="1.6" stroke-linecap="round" stroke-linejoin="round">
    <path d="M20.6 13.4l-7.2 7.2a2 2 0 0 1-2.8 0l-7.2-7.2A2 2 0 0 1 3 12V5a2 2 0 0 1 2-2h7a2 2 0 0 1 1.4.6l7.2 7.2a2 2 0 0 1 0 2.6Z"/><circle cx="7.5" cy="7.5" r="1.4"/>
  </symbol>
  <symbol id="key" viewBox="0 0 24 24" fill="none" stroke="currentColor" stroke-width="1.6" stroke-linecap="round" stroke-linejoin="round">
    <circle cx="7.5" cy="15.5" r="4.5"/><path d="M10.6 12.4 20 3"/><path d="M16 7l3 3"/><path d="M13 10l2.5 2.5"/>
  </symbol>
  <symbol id="chart" viewBox="0 0 24 24" fill="none" stroke="currentColor" stroke-width="1.6" stroke-linecap="round" stroke-linejoin="round">
    <path d="M3 3v18h18"/><rect x="7" y="12" width="3" height="6" rx=".5"/><rect x="12.5" y="8" width="3" height="10" rx=".5"/><rect x="18" y="5" width="3" height="13" rx=".5"/>
  </symbol>
  <symbol id="doc" viewBox="0 0 24 24" fill="none" stroke="currentColor" stroke-width="1.6" stroke-linecap="round" stroke-linejoin="round">
    <path d="M14 3H7a2 2 0 0 0-2 2v14a2 2 0 0 0 2 2h10a2 2 0 0 0 2-2V8Z"/><path d="M14 3v5h5"/><path d="M9 13h6M9 17h6"/>
  </symbol>
  <symbol id="star" viewBox="0 0 24 24" fill="none" stroke="currentColor" stroke-width="1.6" stroke-linecap="round" stroke-linejoin="round">
    <path d="M12 3.5l2.6 5.3 5.9.9-4.3 4.1 1 5.8L12 17l-5.2 2.6 1-5.8L3.5 9.7l5.9-.9Z"/>
  </symbol>
  <symbol id="handshake" viewBox="0 0 24 24" fill="none" stroke="currentColor" stroke-width="1.6" stroke-linecap="round" stroke-linejoin="round">
    <path d="M11 17l2 2a1.5 1.5 0 0 0 2.1 0l3.4-3.4"/><path d="M3 9l3-3 4 1 3 3-1.5 1.5a1.4 1.4 0 0 1-2 0L11 11"/><path d="M21 14l-3 3"/><path d="M14 6l4-1 3 3v5"/><path d="M3 9v5l3 3"/>
  </symbol>
  <symbol id="shield" viewBox="0 0 24 24" fill="none" stroke="currentColor" stroke-width="1.6" stroke-linecap="round" stroke-linejoin="round">
    <path d="M12 3l7 3v5c0 4.5-3 8.2-7 9.5C8 19.2 5 15.5 5 11V6Z"/><path d="M9 12l2 2 4-4"/>
  </symbol>
  <symbol id="pin" viewBox="0 0 24 24" fill="none" stroke="currentColor" stroke-width="1.6" stroke-linecap="round" stroke-linejoin="round">
    <path d="M12 21s7-5.2 7-11a7 7 0 1 0-14 0c0 5.8 7 11 7 11Z"/><circle cx="12" cy="10" r="2.5"/>
  </symbol>
  <symbol id="chat" viewBox="0 0 24 24" fill="none" stroke="currentColor" stroke-width="1.6" stroke-linecap="round" stroke-linejoin="round">
    <path d="M21 12a8 8 0 0 1-11.5 7.2L4 21l1.8-5.5A8 8 0 1 1 21 12Z"/><path d="M9 11h6M9 14h4"/>
  </symbol>
  <symbol id="phone" viewBox="0 0 24 24" fill="none" stroke="currentColor" stroke-width="1.6" stroke-linecap="round" stroke-linejoin="round">
    <path d="M5 3h4l2 5-2.5 1.5a11 11 0 0 0 5 5L20 12l1 4v3a2 2 0 0 1-2 2A16 16 0 0 1 3 6a2 2 0 0 1 2-3Z"/>
  </symbol>
  <symbol id="mobile" viewBox="0 0 24 24" fill="none" stroke="currentColor" stroke-width="1.6" stroke-linecap="round" stroke-linejoin="round">
    <rect x="7" y="2.5" width="10" height="19" rx="2.5"/><path d="M11 18.5h2"/>
  </symbol>
  <symbol id="mail" viewBox="0 0 24 24" fill="none" stroke="currentColor" stroke-width="1.6" stroke-linecap="round" stroke-linejoin="round">
    <rect x="3" y="5" width="18" height="14" rx="2"/><path d="M3.5 6.5 12 13l8.5-6.5"/>
  </symbol>
  <symbol id="clock" viewBox="0 0 24 24" fill="none" stroke="currentColor" stroke-width="1.6" stroke-linecap="round" stroke-linejoin="round">
    <circle cx="12" cy="12" r="9"/><path d="M12 7v5l3.5 2"/>
  </symbol>
  <symbol id="home" viewBox="0 0 24 24" fill="none" stroke="currentColor" stroke-width="1.6" stroke-linecap="round" stroke-linejoin="round">
    <path d="M4 11l8-7 8 7"/><path d="M6 9.5V20h12V9.5"/><path d="M10 20v-5h4v5"/>
  </symbol>
  <symbol id="search" viewBox="0 0 24 24" fill="none" stroke="currentColor" stroke-width="1.6" stroke-linecap="round" stroke-linejoin="round">
    <circle cx="11" cy="11" r="7"/><path d="m21 21-4.3-4.3"/>
  </symbol>
  <symbol id="compass" viewBox="0 0 24 24" fill="none" stroke="currentColor" stroke-width="1.6" stroke-linecap="round" stroke-linejoin="round">
    <circle cx="12" cy="12" r="9"/><path d="m15.5 8.5-2 5-5 2 2-5Z"/>
  </symbol>
  <symbol id="arrow" viewBox="0 0 24 24" fill="none" stroke="currentColor" stroke-width="1.8" stroke-linecap="round" stroke-linejoin="round">
    <path d="M5 12h14"/><path d="m13 6 6 6-6 6"/>
  </symbol>
  <symbol id="building" viewBox="0 0 24 24" fill="none" stroke="currentColor" stroke-width="1.6" stroke-linecap="round" stroke-linejoin="round">
    <path d="M3 21h18"/><path d="M5 21V5a1 1 0 0 1 1-1h7a1 1 0 0 1 1 1v16"/><path d="M14 21v-10h4a1 1 0 0 1 1 1v9"/><path d="M8 8h2M8 12h2M8 16h2"/>
  </symbol>
</svg>
